<?xml version="1.0" standalone="no"?>
<!DOCTYPE svg PUBLIC "-//W3C//DTD SVG 20010904//EN"
 "http://www.w3.org/TR/2001/REC-SVG-20010904/DTD/svg10.dtd">
<svg version="1.0" xmlns="http://www.w3.org/2000/svg"
 width="625.000000pt" height="625.000000pt" viewBox="0 0 625.000000 625.000000"
 preserveAspectRatio="xMidYMid meet">
<metadata>
Created by potrace 1.11, written by Peter Selinger 2001-2013
</metadata>
<g transform="translate(0.000000,625.000000) scale(0.100000,-0.100000)"
fill="#000000" stroke="none">
<path d="M3077 6044 c-1 -1 -60 -4 -132 -8 -71 -3 -143 -8 -160 -10 -16 -3
-55 -7 -87 -11 -45 -5 -215 -37 -312 -60 -122 -28 -350 -109 -491 -175 -502
-233 -1004 -692 -1299 -1190 -100 -168 -215 -424 -257 -571 -7 -24 -14 -48
-15 -54 -17 -58 -37 -134 -40 -150 -4 -18 -15 -71 -28 -130 -4 -20 -14 -87
-21 -135 -4 -30 -16 -139 -21 -195 -10 -116 -4 -451 11 -570 2 -22 7 -62 11
-90 5 -41 27 -165 50 -272 42 -205 189 -569 297 -740 15 -24 27 -45 27 -48 0
-13 204 -302 229 -325 3 -3 28 -32 55 -65 27 -33 113 -123 191 -200 299 -295
616 -505 981 -648 80 -31 295 -99 357 -111 106 -22 231 -45 272 -50 28 -4 66
-8 85 -11 176 -22 511 -22 690 0 112 14 135 17 154 21 12 3 39 7 61 10 22 4
92 19 155 35 63 16 124 31 134 34 92 22 341 122 471 190 191 99 423 257 580
395 170 150 419 427 520 580 17 25 33 47 36 50 12 11 110 180 156 270 55 109
81 167 118 265 15 39 31 79 36 90 22 50 84 297 104 410 3 17 7 39 9 50 4 18 9
56 21 160 8 68 18 236 18 320 0 93 -11 329 -17 362 -2 10 -7 45 -10 78 -13
113 -64 346 -103 470 -95 298 -241 579 -434 835 -327 434 -745 767 -1214 969
-181 78 -473 162 -645 186 -113 16 -167 22 -288 31 -75 6 -251 11 -255 8z
m308 -1629 c315 -64 572 -224 780 -485 186 -234 275 -507 269 -825 -2 -153 -8
-203 -35 -309 -72 -283 -220 -506 -480 -721 -13 -11 -53 -39 -89 -61 -216
-136 -418 -194 -690 -198 -272 -5 -503 59 -720 197 -36 23 -67 44 -70 47 -3 3
-30 25 -60 50 -130 107 -239 239 -327 393 -38 68 -100 229 -109 284 -3 21 -8
41 -10 45 -24 39 -39 384 -21 478 3 14 8 48 12 75 3 28 22 97 41 155 67 201
157 347 319 516 41 43 162 142 216 177 137 89 328 165 462 184 23 3 65 9 92
13 80 12 332 4 420 -15z"/>
<path d="M3039 3402 c-128 -42 -200 -142 -201 -277 -2 -205 191 -336 396 -269
60 20 129 86 157 151 26 60 27 171 3 229 -37 88 -118 157 -199 169 -77 12
-112 11 -156 -3z"/>
</g>
</svg>
