<?xml version="1.0" encoding="utf-8"?>
<!-- Generator: Adobe Illustrator 25.0.1, SVG Export Plug-In . SVG Version: 6.00 Build 0)  -->
<svg version="1.1" id="Layer_1" xmlns="http://www.w3.org/2000/svg" xmlns:xlink="http://www.w3.org/1999/xlink" x="0px" y="0px"
	 viewBox="0 0 250 77.8" style="enable-background:new 0 0 250 77.8;" xml:space="preserve">
<style type="text/css">
	.st0{fill:#256B71;}
</style>
<g>
	<path class="st0" d="M0,39C0,7.2,8.7,0,26.3,0c4,0,7.9,0.6,11,1.2v6.4c-2.6-0.2-5.2-0.4-7.8-0.4c-8,0-10.6,4.3-10.6,31.5
		c0,27.4,2.6,31.8,10.6,31.8c2.6,0,5.2-0.2,7.8-0.4v6.4c-3.1,0.6-6.9,1.2-11,1.2C8.7,77.8,0,70.7,0,39z"/>
	<path class="st0" d="M61.9,47.6h-1.7v29.5H42V0.7h22.5c12.8,0,22.9,4.1,22.9,23.5c0,8.9-2.8,15-7.7,18.8l8,34H68.8L61.9,47.6z
		 M63.8,39.7c3.7,0,5.3-2.9,5.3-16.4c0-14-1.6-15.7-5.3-15.7h-3.6v32.2H63.8z"/>
	<path class="st0" d="M103.6,0.7h14.7l15.4,76.3h-18.6l-3.2-16.2H99.5l-3,16.2h-7.4L103.6,0.7z M100.8,54h9.7l-5-25.5L100.8,54z"/>
	<path class="st0" d="M129.4,0.7h42.3v6.8h-11.9v69.5h-18.5V7.5h-11.9V0.7z"/>
	<path class="st0" d="M175.3,0.7h35.5v6.8h-17v27h14.5v6.8h-14.5v28.9h17v6.8h-35.5V0.7z"/>
	<path class="st0" d="M213.3,76.5v-6.4c3.1,0.2,7,0.4,10.1,0.4c5.8,0,8.2-2,8.2-7c0-1.8-0.1-3.3-1.2-6c-1.1-2.9-3.4-6.9-7.8-14
		c-3.4-5.6-5.7-9.5-7-12.8c-1.9-4.2-2.3-7.3-2.3-11c0-10.5,5.9-19.8,23.4-19.8c3.8,0,7.8,0.6,10.8,1.2v6.4c-2.5-0.2-5.2-0.4-7.7-0.4
		c-6,0-8.9,1.9-8.9,7c0,1.9,0.1,3.4,1.2,6.3c1.2,3,3.6,7.3,8.3,14.8c3.9,6.2,6.2,10.4,7.7,13.9c1.7,3.9,2,6.7,2,10.1
		c0,9.5-6.6,18.4-22.3,18.4C222.2,77.8,217.4,77.2,213.3,76.5z"/>
</g>
</svg>
